<svg width="300" height="140" fill="none" xmlns="http://www.w3.org/2000/svg"><rect x="4.5" y="72.5" width="144" height="21" rx="2.5" fill="#fff" stroke="#212131"/><path fill="#212131" d="M132 73h1v20h-1zM138 73h1v20h-1zM14 73h1v20h-1zM20 73h1v20h-1z"/><rect x=".5" y="112.5" width="152" height="27" rx="2.5" fill="#F2F5F7" stroke="#212131"/><path fill="#212131" d="M20 113h1v26h-1zM28 113h1v26h-1zM124 113h1v26h-1zM132 113h1v26h-1z"/><rect x="9.5" y="93.5" width="134" height="19" rx="2.5" fill="#fff" stroke="#212131"/><path d="M10 96a2 2 0 0 1 2-2h129a2 2 0 0 1 2 2v7H10v-7Z" fill="#F2F5F7"/><rect x="16" y="103" width="121" height="1" rx=".5" fill="#212131"/><path d="M10 96a2 2 0 0 1 2-2h129a2 2 0 0 1 2 2H10Z" fill="#212131"/><rect x="120.5" y="51.5" width="7" height="5" rx="2.5" fill="#fff" stroke="#212131"/><rect x="29.5" y="51.5" width="7" height="5" rx="2.5" fill="#fff" stroke="#212131"/><path d="M71 49a47.878 47.878 0 0 1 .46.197l.001-.004a1.398 1.398 0 0 1 .065-.131c.051-.096.131-.238.246-.41.23-.344.594-.809 1.13-1.275 1.064-.925 2.824-1.877 5.598-1.877v-1c-3.028 0-5.019 1.048-6.254 2.123a7.432 7.432 0 0 0-1.306 1.475 5.704 5.704 0 0 0-.372.643 2.076 2.076 0 0 0-.02.043l-.005.013a.096.096 0 0 0-.003.006v.001L71 49Zm7.5-3.5c2.774 0 4.534.952 5.598 1.877.536.466.9.93 1.13 1.275a4.765 4.765 0 0 1 .31.54l.002.005v-.001L86 49l.46-.196-.001-.002a.096.096 0 0 0-.002-.005l-.006-.013a3.811 3.811 0 0 0-.093-.19 5.704 5.704 0 0 0-.298-.496 7.432 7.432 0 0 0-1.306-1.475C83.52 45.548 81.528 44.5 78.5 44.5v1Z" fill="#212131"/><circle cx="104.5" cy="52.5" r="19" fill="#D1C3F3" stroke="#212131"/><circle cx="52.5" cy="52.5" r="19" fill="#D1C3F3" stroke="#212131"/><mask id="a" style="mask-type:alpha" maskUnits="userSpaceOnUse" x="34" y="34" width="37" height="37"><circle cx="52.5" cy="52.5" r="18" fill="#D1C3FA" stroke="#212131"/></mask><g mask="url(#a)" fill="#fff" fill-opacity=".3"><path d="m18.491 66.933 47.315-47.438 7.88 7.86-47.314 47.439zM28.497 76.91 75.81 29.474l3.54 3.53-47.314 47.439z"/></g><mask id="b" style="mask-type:alpha" maskUnits="userSpaceOnUse" x="86" y="34" width="37" height="37"><circle cx="104.5" cy="52.5" r="18" fill="#D1C3FA" stroke="#212131"/></mask><g mask="url(#b)" fill="#fff" fill-opacity=".3"><path d="m70.491 66.933 47.315-47.438 7.88 7.86-47.314 47.439zM80.497 76.91l47.314-47.437 3.54 3.53-47.314 47.439z"/></g><path fill="#212131" d="M3 139h280v1H3z"/><rect x="183.5" y=".5" width="116" height="139" rx="11.5" fill="#fff" stroke="#212131"/><path d="m214 34.2-7 7-2-2" stroke="#212131" strokeLinecap="round" strokeLinejoin="round"/><path d="M209.4 34.5a6 6 0 1 0 3.547 4.7" stroke="#212131" strokeLinecap="round" strokeLinejoin="round"/><rect x="221.5" y="38.5" width="63" height="4" rx="2" fill="#fff" stroke="#212131"/><path d="m214 60.2-7 7-2-2" stroke="#212131" strokeLinecap="round" strokeLinejoin="round"/><path d="M209.4 60.5a6 6 0 1 0 3.547 4.7" stroke="#212131" strokeLinecap="round" strokeLinejoin="round"/><rect x="221.5" y="64.5" width="63" height="4" rx="2" fill="#fff" stroke="#212131"/><path d="m214 86.2-7 7-2-2" stroke="#212131" strokeLinecap="round" strokeLinejoin="round"/><path d="M209.4 86.5a6 6 0 1 0 3.547 4.7" stroke="#212131" strokeLinecap="round" strokeLinejoin="round"/><rect x="221.5" y="90.5" width="28" height="4" rx="2" fill="#fff" stroke="#212131"/><rect x="253.5" y="90.5" width="14" height="4" rx="2" fill="#fff" stroke="#212131"/><rect x="179" y="91" width="1" height="33" rx=".5" fill="#212131"/><rect x="179" y="86" width="1" height="2" rx=".5" fill="#212131"/></svg>